<mxfile host="app.diagrams.net" modified="2022-04-28T17:16:58.872Z" agent="5.0 (X11; CrOS x86_64 14695.9.0) AppleWebKit/537.36 (KHTML, like Gecko) Chrome/102.0.5005.5 Safari/537.36" etag="OZ7Kn0PLfo4gsNNMqdJs" version="17.4.6" type="github">
  <diagram id="C5RBs43oDa-KdzZeNtuy" name="Page-1">
    <mxGraphModel dx="1369" dy="873" grid="1" gridSize="10" guides="1" tooltips="1" connect="1" arrows="1" fold="1" page="1" pageScale="1" pageWidth="827" pageHeight="1169" math="0" shadow="0">
      <root>
        <mxCell id="WIyWlLk6GJQsqaUBKTNV-0" />
        <mxCell id="WIyWlLk6GJQsqaUBKTNV-1" parent="WIyWlLk6GJQsqaUBKTNV-0" />
        <mxCell id="f1Rm1cfTJlFXkbWN4qhH-1" style="edgeStyle=orthogonalEdgeStyle;rounded=0;orthogonalLoop=1;jettySize=auto;html=1;exitX=0.5;exitY=1;exitDx=0;exitDy=0;exitPerimeter=0;" edge="1" parent="WIyWlLk6GJQsqaUBKTNV-1" source="f1Rm1cfTJlFXkbWN4qhH-0" target="f1Rm1cfTJlFXkbWN4qhH-2">
          <mxGeometry relative="1" as="geometry">
            <mxPoint x="160" y="170" as="targetPoint" />
          </mxGeometry>
        </mxCell>
        <mxCell id="f1Rm1cfTJlFXkbWN4qhH-0" value="start" style="strokeWidth=2;html=1;shape=mxgraph.flowchart.terminator;whiteSpace=wrap;" vertex="1" parent="WIyWlLk6GJQsqaUBKTNV-1">
          <mxGeometry x="75" y="30" width="100" height="60" as="geometry" />
        </mxCell>
        <mxCell id="f1Rm1cfTJlFXkbWN4qhH-17" style="edgeStyle=orthogonalEdgeStyle;rounded=0;orthogonalLoop=1;jettySize=auto;html=1;entryX=0.5;entryY=0;entryDx=0;entryDy=0;entryPerimeter=0;" edge="1" parent="WIyWlLk6GJQsqaUBKTNV-1" source="f1Rm1cfTJlFXkbWN4qhH-2" target="f1Rm1cfTJlFXkbWN4qhH-3">
          <mxGeometry relative="1" as="geometry" />
        </mxCell>
        <mxCell id="f1Rm1cfTJlFXkbWN4qhH-2" value="Enter users age" style="shape=parallelogram;html=1;strokeWidth=2;perimeter=parallelogramPerimeter;whiteSpace=wrap;rounded=1;arcSize=12;size=0.23;" vertex="1" parent="WIyWlLk6GJQsqaUBKTNV-1">
          <mxGeometry x="60" y="150" width="130" height="90" as="geometry" />
        </mxCell>
        <mxCell id="f1Rm1cfTJlFXkbWN4qhH-6" style="edgeStyle=orthogonalEdgeStyle;rounded=0;orthogonalLoop=1;jettySize=auto;html=1;" edge="1" parent="WIyWlLk6GJQsqaUBKTNV-1" source="f1Rm1cfTJlFXkbWN4qhH-3" target="f1Rm1cfTJlFXkbWN4qhH-5">
          <mxGeometry relative="1" as="geometry" />
        </mxCell>
        <mxCell id="f1Rm1cfTJlFXkbWN4qhH-16" style="edgeStyle=orthogonalEdgeStyle;rounded=0;orthogonalLoop=1;jettySize=auto;html=1;exitX=0.5;exitY=1;exitDx=0;exitDy=0;exitPerimeter=0;" edge="1" parent="WIyWlLk6GJQsqaUBKTNV-1" source="f1Rm1cfTJlFXkbWN4qhH-3" target="f1Rm1cfTJlFXkbWN4qhH-9">
          <mxGeometry relative="1" as="geometry" />
        </mxCell>
        <mxCell id="f1Rm1cfTJlFXkbWN4qhH-3" value="if age &amp;gt;= 17" style="strokeWidth=2;html=1;shape=mxgraph.flowchart.decision;whiteSpace=wrap;" vertex="1" parent="WIyWlLk6GJQsqaUBKTNV-1">
          <mxGeometry x="60" y="280" width="130" height="100" as="geometry" />
        </mxCell>
        <mxCell id="f1Rm1cfTJlFXkbWN4qhH-13" style="edgeStyle=orthogonalEdgeStyle;rounded=0;orthogonalLoop=1;jettySize=auto;html=1;" edge="1" parent="WIyWlLk6GJQsqaUBKTNV-1" source="f1Rm1cfTJlFXkbWN4qhH-4" target="f1Rm1cfTJlFXkbWN4qhH-8">
          <mxGeometry relative="1" as="geometry" />
        </mxCell>
        <mxCell id="f1Rm1cfTJlFXkbWN4qhH-14" style="edgeStyle=orthogonalEdgeStyle;rounded=0;orthogonalLoop=1;jettySize=auto;html=1;" edge="1" parent="WIyWlLk6GJQsqaUBKTNV-1" source="f1Rm1cfTJlFXkbWN4qhH-4" target="f1Rm1cfTJlFXkbWN4qhH-12">
          <mxGeometry relative="1" as="geometry" />
        </mxCell>
        <mxCell id="f1Rm1cfTJlFXkbWN4qhH-4" value="if age &amp;gt;= 17" style="strokeWidth=2;html=1;shape=mxgraph.flowchart.decision;whiteSpace=wrap;" vertex="1" parent="WIyWlLk6GJQsqaUBKTNV-1">
          <mxGeometry x="480" y="280" width="110" height="100" as="geometry" />
        </mxCell>
        <mxCell id="f1Rm1cfTJlFXkbWN4qhH-7" style="edgeStyle=orthogonalEdgeStyle;rounded=0;orthogonalLoop=1;jettySize=auto;html=1;entryX=0;entryY=0.5;entryDx=0;entryDy=0;entryPerimeter=0;" edge="1" parent="WIyWlLk6GJQsqaUBKTNV-1" source="f1Rm1cfTJlFXkbWN4qhH-5" target="f1Rm1cfTJlFXkbWN4qhH-4">
          <mxGeometry relative="1" as="geometry" />
        </mxCell>
        <mxCell id="f1Rm1cfTJlFXkbWN4qhH-15" style="edgeStyle=orthogonalEdgeStyle;rounded=0;orthogonalLoop=1;jettySize=auto;html=1;exitX=0.5;exitY=1;exitDx=0;exitDy=0;exitPerimeter=0;" edge="1" parent="WIyWlLk6GJQsqaUBKTNV-1" source="f1Rm1cfTJlFXkbWN4qhH-5" target="f1Rm1cfTJlFXkbWN4qhH-10">
          <mxGeometry relative="1" as="geometry" />
        </mxCell>
        <mxCell id="f1Rm1cfTJlFXkbWN4qhH-5" value="if age &amp;gt;= 17" style="strokeWidth=2;html=1;shape=mxgraph.flowchart.decision;whiteSpace=wrap;" vertex="1" parent="WIyWlLk6GJQsqaUBKTNV-1">
          <mxGeometry x="280" y="280" width="120" height="100" as="geometry" />
        </mxCell>
        <mxCell id="f1Rm1cfTJlFXkbWN4qhH-22" style="edgeStyle=orthogonalEdgeStyle;rounded=0;orthogonalLoop=1;jettySize=auto;html=1;" edge="1" parent="WIyWlLk6GJQsqaUBKTNV-1" source="f1Rm1cfTJlFXkbWN4qhH-8">
          <mxGeometry relative="1" as="geometry">
            <mxPoint x="480" y="630" as="targetPoint" />
            <Array as="points">
              <mxPoint x="700" y="630" />
            </Array>
          </mxGeometry>
        </mxCell>
        <mxCell id="f1Rm1cfTJlFXkbWN4qhH-8" value="You can&#39;t see any&lt;br&gt;&amp;nbsp;movies kiddo" style="shape=parallelogram;html=1;strokeWidth=2;perimeter=parallelogramPerimeter;whiteSpace=wrap;rounded=1;arcSize=12;size=0.23;" vertex="1" parent="WIyWlLk6GJQsqaUBKTNV-1">
          <mxGeometry x="630" y="430" width="140" height="90" as="geometry" />
        </mxCell>
        <mxCell id="f1Rm1cfTJlFXkbWN4qhH-20" style="edgeStyle=orthogonalEdgeStyle;rounded=0;orthogonalLoop=1;jettySize=auto;html=1;entryX=0;entryY=0.5;entryDx=0;entryDy=0;entryPerimeter=0;" edge="1" parent="WIyWlLk6GJQsqaUBKTNV-1" source="f1Rm1cfTJlFXkbWN4qhH-9" target="f1Rm1cfTJlFXkbWN4qhH-18">
          <mxGeometry relative="1" as="geometry">
            <Array as="points">
              <mxPoint x="120" y="630" />
            </Array>
          </mxGeometry>
        </mxCell>
        <mxCell id="f1Rm1cfTJlFXkbWN4qhH-9" value="&quot;you are able to&lt;br&gt;&amp;nbsp;see R rated &lt;br&gt;movies&quot;" style="shape=parallelogram;html=1;strokeWidth=2;perimeter=parallelogramPerimeter;whiteSpace=wrap;rounded=1;arcSize=12;size=0.23;" vertex="1" parent="WIyWlLk6GJQsqaUBKTNV-1">
          <mxGeometry x="55" y="430" width="140" height="90" as="geometry" />
        </mxCell>
        <mxCell id="f1Rm1cfTJlFXkbWN4qhH-19" style="edgeStyle=orthogonalEdgeStyle;rounded=0;orthogonalLoop=1;jettySize=auto;html=1;entryX=0;entryY=0.5;entryDx=0;entryDy=0;entryPerimeter=0;" edge="1" parent="WIyWlLk6GJQsqaUBKTNV-1" source="f1Rm1cfTJlFXkbWN4qhH-10" target="f1Rm1cfTJlFXkbWN4qhH-18">
          <mxGeometry relative="1" as="geometry" />
        </mxCell>
        <mxCell id="f1Rm1cfTJlFXkbWN4qhH-10" value="&quot;you are able to&lt;br&gt;&amp;nbsp;see PG rated &lt;br&gt;movies&quot;" style="shape=parallelogram;html=1;strokeWidth=2;perimeter=parallelogramPerimeter;whiteSpace=wrap;rounded=1;arcSize=12;size=0.23;" vertex="1" parent="WIyWlLk6GJQsqaUBKTNV-1">
          <mxGeometry x="270" y="430" width="140" height="90" as="geometry" />
        </mxCell>
        <mxCell id="f1Rm1cfTJlFXkbWN4qhH-21" style="edgeStyle=orthogonalEdgeStyle;rounded=0;orthogonalLoop=1;jettySize=auto;html=1;entryX=1;entryY=0.5;entryDx=0;entryDy=0;entryPerimeter=0;" edge="1" parent="WIyWlLk6GJQsqaUBKTNV-1" source="f1Rm1cfTJlFXkbWN4qhH-12" target="f1Rm1cfTJlFXkbWN4qhH-18">
          <mxGeometry relative="1" as="geometry" />
        </mxCell>
        <mxCell id="f1Rm1cfTJlFXkbWN4qhH-12" value="&quot;you are able to&lt;br&gt;&amp;nbsp;see G rated &lt;br&gt;movies&quot;" style="shape=parallelogram;html=1;strokeWidth=2;perimeter=parallelogramPerimeter;whiteSpace=wrap;rounded=1;arcSize=12;size=0.23;" vertex="1" parent="WIyWlLk6GJQsqaUBKTNV-1">
          <mxGeometry x="465" y="430" width="140" height="90" as="geometry" />
        </mxCell>
        <mxCell id="f1Rm1cfTJlFXkbWN4qhH-18" value="0-0" style="strokeWidth=2;html=1;shape=mxgraph.flowchart.terminator;whiteSpace=wrap;" vertex="1" parent="WIyWlLk6GJQsqaUBKTNV-1">
          <mxGeometry x="380" y="600" width="100" height="60" as="geometry" />
        </mxCell>
      </root>
    </mxGraphModel>
  </diagram>
</mxfile>
